<?xml version="1.0" encoding="UTF-8"?><svg id="Laag_1" xmlns="http://www.w3.org/2000/svg" viewBox="0 0 274.66 99.93"><defs><style>.cls-1{fill:#fff;}</style></defs><path class="cls-1" d="m87.41,32.39c4.72,4.72,7.08,10.42,7.08,17.11s-2.36,12.37-7.08,17.11c-4.72,4.72-10.42,7.08-17.11,7.08s-12.37-2.36-17.11-7.08c-4.72-4.74-7.08-10.45-7.08-17.11s2.36-12.4,7.08-17.11c4.74-4.72,10.45-7.08,17.11-7.08s12.4,2.36,17.11,7.08Zm-17.11,2.72c-3.97,0-7.36,1.41-10.17,4.22-2.81,2.81-4.22,6.21-4.22,10.17s1.41,7.36,4.22,10.17c2.81,2.81,6.2,4.22,10.17,4.22s7.4-1.41,10.21-4.22c2.79-2.81,4.18-6.2,4.18-10.17s-1.4-7.36-4.18-10.17c-2.81-2.81-6.21-4.22-10.21-4.22Z"/><path class="cls-1" d="m177.69,63.9c1.36,0,2.52.48,3.47,1.43.95.95,1.43,2.11,1.43,3.47s-.48,2.52-1.43,3.47c-.95.95-2.11,1.43-3.47,1.43h-25.41c-1.36,0-2.52-.48-3.47-1.43s-1.43-2.11-1.43-3.47V30.21c0-1.36.48-2.52,1.43-3.47.95-.95,2.11-1.43,3.47-1.43h25.42c1.36,0,2.52.48,3.47,1.43s1.43,2.11,1.43,3.47-.48,2.49-1.43,3.44c-.95.97-2.11,1.46-3.47,1.46h-20.52v9.49h16.11c1.34,0,2.49.47,3.44,1.43.98.95,1.46,2.11,1.46,3.47s-.49,2.52-1.46,3.47c-.95.95-2.1,1.43-3.44,1.43h-16.11v9.49h20.52,0Z"/><path class="cls-1" d="m205.74,58.59c-4.11-.93-7.65-2.89-10.62-5.89-4.31-4.31-6.47-9.48-6.47-15.52v-6.97c0-1.36.48-2.52,1.43-3.47.95-.95,2.11-1.43,3.47-1.43s2.52.48,3.47,1.43c.95.95,1.43,2.11,1.43,3.47v6.97c0,3.33,1.19,6.19,3.57,8.58,2.38,2.4,5.25,3.61,8.61,3.61s6.19-1.2,8.57-3.61c2.38-2.38,3.57-5.24,3.57-8.58v-6.97c0-1.36.48-2.52,1.43-3.47.95-.95,2.11-1.43,3.47-1.43s2.52.48,3.47,1.43c.95.95,1.43,2.11,1.43,3.47v6.97c0,6.03-2.15,11.21-6.46,15.52-2.97,2.99-6.51,4.96-10.62,5.89,0,0-5.38,1.49-9.76,0h0Z"/><path class="cls-1" d="m269.76,63.9c1.36,0,2.52.48,3.47,1.43.95.95,1.43,2.11,1.43,3.47s-.48,2.52-1.43,3.47c-.95.95-2.11,1.43-3.47,1.43h-25.42c-1.36,0-2.52-.48-3.47-1.43-.95-.95-1.43-2.11-1.43-3.47V30.21c0-1.36.48-2.52,1.43-3.47.95-.95,2.11-1.43,3.47-1.43h25.42c1.36,0,2.52.48,3.47,1.43s1.43,2.11,1.43,3.47-.48,2.49-1.43,3.44c-.95.97-2.11,1.46-3.47,1.46h-20.52v9.49h16.11c1.34,0,2.49.47,3.44,1.43.98.95,1.46,2.11,1.46,3.47s-.49,2.52-1.46,3.47c-.95.95-2.1,1.43-3.44,1.43h-16.11v9.49h20.52Z"/><path class="cls-1" d="m0,44.74C0,39.42,1.88,34.88,5.65,31.12s8.32-5.65,13.65-5.65,9.86,1.88,13.62,5.65,5.65,8.31,5.65,13.62-1.88,9.89-5.65,13.66c-3.76,3.76-8.3,5.64-13.62,5.64h-9.57v4.63c0,1.35-.47,2.5-1.42,3.45-.95.94-2.1,1.42-3.45,1.42s-2.5-.47-3.45-1.42c-.94-.95-1.42-2.1-1.42-3.45v-23.93h0Zm9.74,9.56h9.57c2.64,0,4.88-.93,6.73-2.81,1.87-1.87,2.81-4.12,2.81-6.76s-.93-4.88-2.81-6.73c-1.85-1.87-4.09-2.81-6.73-2.81s-4.91.94-6.76,2.81c-1.87,1.85-2.81,4.09-2.81,6.73,0,0,0,9.57,0,9.57Z"/><path class="cls-1" d="m102.16,44.74c0-5.32,1.88-9.86,5.65-13.62s8.32-5.65,13.65-5.65,9.86,1.88,13.62,5.65,5.65,8.31,5.65,13.62-1.88,9.89-5.65,13.66c-3.76,3.76-8.3,5.64-13.62,5.64h-9.57v4.63c0,1.35-.47,2.5-1.42,3.45-.95.94-2.1,1.42-3.45,1.42s-2.5-.47-3.45-1.42c-.95-.95-1.42-2.1-1.42-3.45v-23.93h0Zm9.74,9.56h9.57c2.64,0,4.88-.93,6.73-2.81,1.87-1.87,2.81-4.12,2.81-6.76s-.93-4.88-2.81-6.73c-1.85-1.87-4.09-2.81-6.73-2.81s-4.91.94-6.76,2.81c-1.87,1.85-2.81,4.09-2.81,6.73v9.57Z"/><path class="cls-1" d="m215.51,61.11s-5.38,1.49-9.76,0c-.33-.07-.65-.17-.98-.26v7.3c0,1.54.57,2.85,1.72,3.93,1.14,1.08,2.53,1.62,4.16,1.62s2.98-.54,4.13-1.62c1.14-1.08,1.71-2.39,1.71-3.93v-7.3c-.32.09-.65.18-.98.26h0Z"/><path class="cls-1" d="m95.89,74.55c-3.13,3.57-7.08,6.49-11.5,8.43-4.4,1.97-9.25,2.96-14.09,2.98-4.84-.01-9.69-1.01-14.09-2.98-4.42-1.94-8.37-4.86-11.5-8.43,3.57,3.13,7.64,5.59,11.98,7.27,4.35,1.67,8.98,2.54,13.61,2.53,4.64.01,9.27-.86,13.61-2.53,4.34-1.68,8.41-4.15,11.98-7.28h0Z"/><path class="cls-1" d="m44.7,25.36c3.14-3.57,7.09-6.48,11.51-8.42,4.4-1.97,9.25-2.96,14.09-2.98,4.84.01,9.68,1,14.09,2.97,4.42,1.94,8.37,4.85,11.5,8.42-3.58-3.12-7.64-5.58-11.98-7.26-4.35-1.67-8.97-2.54-13.61-2.53-4.64-.01-9.26.86-13.61,2.53-4.34,1.68-8.41,4.14-11.99,7.26h0Z"/><path class="cls-1" d="m105.06,84.71c-2.15,2.4-4.61,4.53-7.23,6.44-2.65,1.87-5.5,3.48-8.48,4.8-5.97,2.64-12.52,3.95-19.05,3.97-6.54-.02-13.09-1.33-19.05-3.97-2.98-1.32-5.83-2.92-8.48-4.79-2.62-1.91-5.08-4.04-7.23-6.44,2.4,2.14,4.94,4.12,7.67,5.79,2.7,1.71,5.55,3.16,8.51,4.31,5.92,2.3,12.24,3.52,18.58,3.51,6.34.02,12.66-1.2,18.58-3.5,2.96-1.15,5.82-2.6,8.51-4.31,2.73-1.67,5.26-3.65,7.67-5.79h0Z"/><path class="cls-1" d="m35.53,15.19c2.15-2.4,4.62-4.52,7.24-6.43,2.65-1.87,5.5-3.47,8.48-4.78C57.21,1.33,63.76.02,70.3,0c6.54.02,13.08,1.33,19.05,3.97,2.98,1.32,5.83,2.92,8.48,4.79,2.62,1.91,5.08,4.03,7.24,6.43-2.41-2.14-4.94-4.11-7.67-5.78-2.7-1.71-5.55-3.15-8.51-4.3-5.92-2.3-12.24-3.51-18.57-3.5-6.33-.02-12.65,1.2-18.57,3.5-2.96,1.15-5.82,2.59-8.52,4.3-2.73,1.66-5.27,3.64-7.67,5.78h0Z"/><path class="cls-1" d="m70.3,58.54c-2.45,0-4.65-.92-6.39-2.65s-2.65-3.94-2.65-6.39.92-4.65,2.65-6.39c1.73-1.73,3.94-2.65,6.39-2.65s4.65.89,6.4,2.65c1.72,1.74,2.63,3.95,2.63,6.39s-.91,4.64-2.62,6.38c-1.76,1.76-3.92,2.66-6.41,2.66h0Zm0-16.74c-2.08,0-3.97.78-5.44,2.26-1.48,1.48-2.26,3.36-2.26,5.45s.78,3.97,2.26,5.44c1.48,1.48,3.36,2.26,5.44,2.26s3.96-.76,5.47-2.26c1.46-1.47,2.23-3.36,2.23-5.44s-.78-3.97-2.25-5.45c-1.5-1.5-3.33-2.26-5.46-2.26h0Z"/><path class="cls-1" d="m70.3,53.77c-1.15,0-2.2-.43-3.02-1.25s-1.25-1.86-1.25-3.01.43-2.2,1.25-3.01c.81-.82,1.86-1.25,3.01-1.25s2.19.42,3.02,1.25c.81.82,1.25,1.86,1.25,3.01s-.43,2.19-1.24,3.01c-.83.83-1.85,1.25-3.03,1.25Zm0-7.2c-.79,0-1.51.3-2.07.86-.56.56-.86,1.28-.86,2.07s.3,1.51.86,2.07c.56.56,1.28.86,2.07.86s1.5-.28,2.08-.86c.55-.56.85-1.28.85-2.07s-.3-1.51-.86-2.07c-.57-.58-1.26-.86-2.08-.86h0Z"/></svg>